<svg width="3932" height="1867" xmlns="http://www.w3.org/2000/svg" xmlns:xlink="http://www.w3.org/1999/xlink" overflow="hidden"><defs><clipPath id="clip0"><rect x="5893" y="72" width="3932" height="1867"/></clipPath><clipPath id="clip1"><rect x="5894" y="73" width="3929" height="1864"/></clipPath><clipPath id="clip2"><rect x="5894" y="73" width="3929" height="1864"/></clipPath><clipPath id="clip3"><rect x="6232" y="123" width="3540" height="1580"/></clipPath><clipPath id="clip4"><rect x="6232" y="123" width="3540" height="1580"/></clipPath><clipPath id="clip5"><rect x="5894" y="73" width="3929" height="1864"/></clipPath><clipPath id="clip6"><rect x="5894" y="73" width="3929" height="1864"/></clipPath><clipPath id="clip7"><rect x="5894" y="73" width="3929" height="1864"/></clipPath><clipPath id="clip8"><rect x="5894" y="73" width="3929" height="1864"/></clipPath><clipPath id="clip9"><rect x="5894" y="73" width="3929" height="1864"/></clipPath><clipPath id="clip10"><rect x="5894" y="73" width="3929" height="1864"/></clipPath><clipPath id="clip11"><rect x="5894" y="73" width="3929" height="1864"/></clipPath><clipPath id="clip12"><rect x="5894" y="73" width="3929" height="1864"/></clipPath><clipPath id="clip13"><rect x="5894" y="73" width="3929" height="1864"/></clipPath><clipPath id="clip14"><rect x="5894" y="73" width="3929" height="1864"/></clipPath><clipPath id="clip15"><rect x="5894" y="73" width="3929" height="1864"/></clipPath><clipPath id="clip16"><rect x="5894" y="73" width="3929" height="1864"/></clipPath><clipPath id="clip17"><rect x="5894" y="73" width="3929" height="1864"/></clipPath><clipPath id="clip18"><rect x="5894" y="73" width="3929" height="1864"/></clipPath><clipPath id="clip19"><rect x="5894" y="73" width="3929" height="1864"/></clipPath><clipPath id="clip20"><rect x="5894" y="73" width="3929" height="1864"/></clipPath><clipPath id="clip21"><rect x="5894" y="73" width="3929" height="1864"/></clipPath><clipPath id="clip22"><rect x="5894" y="73" width="3929" height="1864"/></clipPath><clipPath id="clip23"><rect x="5894" y="73" width="3929" height="1864"/></clipPath><clipPath id="clip24"><rect x="5894" y="73" width="3929" height="1864"/></clipPath><clipPath id="clip25"><rect x="5894" y="73" width="3929" height="1864"/></clipPath><clipPath id="clip26"><rect x="5894" y="73" width="3929" height="1864"/></clipPath><clipPath id="clip27"><rect x="5894" y="73" width="3929" height="1864"/></clipPath><clipPath id="clip28"><rect x="5894" y="73" width="3929" height="1864"/></clipPath><clipPath id="clip29"><rect x="5894" y="73" width="3929" height="1864"/></clipPath><clipPath id="clip30"><rect x="5894" y="73" width="3929" height="1864"/></clipPath><clipPath id="clip31"><rect x="5894" y="73" width="3929" height="1864"/></clipPath><clipPath id="clip32"><rect x="5894" y="73" width="3929" height="1864"/></clipPath><clipPath id="clip33"><rect x="5894" y="73" width="3929" height="1864"/></clipPath><clipPath id="clip34"><rect x="5894" y="73" width="3929" height="1864"/></clipPath><clipPath id="clip35"><rect x="5894" y="73" width="3929" height="1864"/></clipPath><clipPath id="clip36"><rect x="5894" y="73" width="3929" height="1864"/></clipPath><clipPath id="clip37"><rect x="5894" y="73" width="3929" height="1864"/></clipPath><clipPath id="clip38"><rect x="5894" y="73" width="3929" height="1864"/></clipPath><clipPath id="clip39"><rect x="5894" y="73" width="3929" height="1864"/></clipPath><clipPath id="clip40"><rect x="5894" y="73" width="3929" height="1864"/></clipPath><clipPath id="clip41"><rect x="5894" y="73" width="3929" height="1864"/></clipPath><clipPath id="clip42"><rect x="5894" y="73" width="3929" height="1864"/></clipPath><clipPath id="clip43"><rect x="5894" y="73" width="3929" height="1864"/></clipPath><clipPath id="clip44"><rect x="5894" y="73" width="3929" height="1864"/></clipPath><clipPath id="clip45"><rect x="5894" y="73" width="3929" height="1864"/></clipPath><clipPath id="clip46"><rect x="5894" y="73" width="3929" height="1864"/></clipPath><clipPath id="clip47"><rect x="5894" y="73" width="3929" height="1864"/></clipPath><clipPath id="clip48"><rect x="5894" y="73" width="3929" height="1864"/></clipPath><clipPath id="clip49"><rect x="5894" y="73" width="3929" height="1864"/></clipPath><clipPath id="clip50"><rect x="5894" y="73" width="3929" height="1864"/></clipPath><clipPath id="clip51"><rect x="5894" y="73" width="3929" height="1864"/></clipPath><clipPath id="clip52"><rect x="5894" y="73" width="3929" height="1864"/></clipPath><clipPath id="clip53"><rect x="5894" y="73" width="3929" height="1864"/></clipPath><clipPath id="clip54"><rect x="5894" y="73" width="3929" height="1864"/></clipPath><clipPath id="clip55"><rect x="5894" y="73" width="3929" height="1864"/></clipPath><clipPath id="clip56"><rect x="5894" y="73" width="3929" height="1864"/></clipPath><clipPath id="clip57"><rect x="5894" y="73" width="3929" height="1864"/></clipPath><clipPath id="clip58"><rect x="5894" y="73" width="3929" height="1864"/></clipPath><clipPath id="clip59"><rect x="5894" y="73" width="3929" height="1864"/></clipPath><clipPath id="clip60"><rect x="5894" y="73" width="3929" height="1864"/></clipPath><clipPath id="clip61"><rect x="5894" y="73" width="3929" height="1864"/></clipPath><clipPath id="clip62"><rect x="5894" y="73" width="3929" height="1864"/></clipPath><clipPath id="clip63"><rect x="5894" y="73" width="3929" height="1864"/></clipPath><clipPath id="clip64"><rect x="5894" y="73" width="3929" height="1864"/></clipPath><clipPath id="clip65"><rect x="5894" y="73" width="3929" height="1864"/></clipPath><clipPath id="clip66"><rect x="5894" y="73" width="3929" height="1864"/></clipPath><clipPath id="clip67"><rect x="5894" y="73" width="3929" height="1864"/></clipPath><clipPath id="clip68"><rect x="5894" y="73" width="3929" height="1864"/></clipPath><clipPath id="clip69"><rect x="5894" y="73" width="3929" height="1864"/></clipPath><clipPath id="clip70"><rect x="5894" y="73" width="3929" height="1864"/></clipPath><clipPath id="clip71"><rect x="5894" y="73" width="3929" height="1864"/></clipPath><clipPath id="clip72"><rect x="5894" y="73" width="3929" height="1864"/></clipPath><clipPath id="clip73"><rect x="5894" y="73" width="3929" height="1864"/></clipPath><clipPath id="clip74"><rect x="5894" y="73" width="3929" height="1864"/></clipPath><clipPath id="clip75"><rect x="5894" y="73" width="3929" height="1864"/></clipPath></defs><g clip-path="url(#clip0)" transform="translate(-5893 -72)"><rect x="5894" y="72.9999" width="3929" height="1864" fill="#FFFFFF"/><g clip-path="url(#clip1)"><path d="M6232.5 1387.55 9772.5 1387.55M6232.5 1071.54 9772.5 1071.54M6232.5 755.525 9772.5 755.525M6232.5 439.515 9772.5 439.515M6232.5 123.5 9772.5 123.5" stroke="#D9D9D9" stroke-width="3.4375" stroke-linejoin="round" stroke-miterlimit="10" fill="none"/></g><g clip-path="url(#clip2)"><path d="M6232.5 1703.5 9772.5 1703.5" stroke="#D9D9D9" stroke-width="3.4375" stroke-linejoin="round" stroke-miterlimit="10" fill="none" fill-rule="evenodd"/></g><g clip-path="url(#clip3)"><path d="M6240 1524 6243.2 1506.05 6247.21 1492.05 6250.21 1479.05 6254.21 1469.05 6257.21 1459.05 6260.21 1451.05 6264.21 1443.05 6267.21 1436.05 6271.21 1430.05 6274.21 1424.05 6278.21 1418.05 6281.21 1413.05 6284.21 1408.05 6288.21 1404.05 6291.21 1399.05 6295.21 1395.05 6298.21 1391.05 6302.21 1388.05 6305.21 1384.05 6308.21 1381.05 6312.21 1377.05 6315.21 1374.05 6319.21 1371.04 6322.21 1368.04 6326.21 1365.04 6329.21 1363.04 6332.21 1360.04 6336.21 1357.04 6339.21 1355.04 6343.21 1352.04 6346.21 1350.04 6349.21 1348.04 6353.21 1346.04 6356.21 1343.04 6360.21 1341.04 6363.21 1339.04 6367.21 1337.04 6370.21 1335.04 6373.21 1334.04 6377.21 1332.04 6380.21 1330.04 6384.21 1328.04 6387.21 1326.04 6391.21 1325.04 6394.21 1323.04 6397.21 1321.04 6401.21 1320.04 6404.21 1318.04 6408.21 1317.04 6411.21 1315.04 6415.21 1314.04 6418.21 1312.04 6421.21 1311.04 6425.21 1309.04 6428.21 1308.04 6432.21 1307.04 6435.21 1305.04 6439.21 1304.04 6442.21 1303.04 6445.21 1301.04 6449.21 1300.04 6452.21 1299.04 6456.21 1298.04 6459.21 1296.04 6463.21 1295.04 6466.21 1294.04 6469.21 1293.04 6473.21 1292.04 6476.21 1291.04 6480.21 1290.04 6483.21 1289.04 6487.21 1287.04 6490.21 1286.04 6493.21 1285.04 6497.21 1284.04 6500.21 1283.04 6504.21 1282.04 6507.21 1281.04 6511.21 1280.04 6514.21 1279.04 6517.21 1278.04 6521.21 1277.04 6524.21 1277.04 6528.21 1276.04 6531.21 1275.04 6535.21 1274.04 6538.21 1273.04 6541.21 1272.04 6545.21 1271.04 6548.21 1270.04 6552.21 1269.04 6555.21 1269.04 6558.21 1268.04 6562.22 1267.04 6565.22 1266.04 6569.22 1265.04 6572.22 1264.04 6576.22 1264.04 6579.22 1263.04 6582.22 1262.04 6586.22 1261.04 6589.22 1261.04 6593.22 1260.04 6596.22 1259.04 6600.22 1258.04 6603.22 1258.04 6606.22 1257.04 6610.22 1256.04 6613.22 1255.04 6617.22 1255.04 6620.22 1254.04 6624.22 1253.04 6627.22 1253.04 6630.22 1252.04 6634.22 1251.04 6637.22 1251.04 6641.22 1250.04 6644.22 1249.04 6648.22 1249.04 6651.22 1248.04 6654.22 1247.04 6658.22 1247.04 6661.22 1246.04 6665.22 1245.04 6668.22 1245.04 6672.22 1244.04 6675.22 1243.04 6678.22 1243.04 6682.22 1242.04 6685.22 1242.04 6689.22 1241.04 6692.22 1240.04 6696.22 1240.04 6699.22 1239.04 6702.22 1239.04 6706.22 1238.04 6709.22 1237.04 6713.22 1237.04 6716.22 1236.04 6720.22 1236.04 6723.22 1235.04 6726.22 1235.04 6730.22 1234.04 6733.22 1234.04 6737.22 1233.04 6740.22 1232.04 6743.22 1232.04 6747.22 1231.04 6750.22 1231.04 6754.22 1230.04 6757.22 1230.04 6761.22 1229.04 6764.22 1229.04 6767.22 1228.04 6771.22 1228.04 6774.22 1227.04 6778.22 1227.04 6781.22 1226.04 6785.22 1226.04 6788.22 1225.04 6791.22 1225.04 6795.22 1224.04 6798.22 1224.04 6802.22 1223.04 6805.22 1223.04 6809.22 1222.04 6812.22 1222.04 6815.22 1221.04 6819.22 1221.04 6822.22 1220.04 6826.22 1220.04 6829.22 1220.04 6833.22 1219.04 6836.22 1219.04 6839.22 1218.04 6843.22 1218.04 6846.22 1217.04 6850.22 1217.04 6853.22 1216.04 6857.22 1216.04 6860.23 1216.04 6863.23 1215.04 6867.23 1215.04 6870.23 1214.04 6874.23 1214.04 6877.23 1213.04 6881.23 1213.04 6884.23 1212.04 6887.23 1212.04 6891.23 1212.04 6894.23 1211.04 6898.23 1211.04 6901.23 1210.04 6905.23 1210.04 6908.23 1210.04 6911.23 1209.04 6915.23 1209.04 6918.23 1208.04 6922.23 1208.04 6925.23 1208.04 6929.23 1207.04 6932.23 1207.04 6935.23 1206.04 6939.23 1206.04 6942.23 1206.04 6946.23 1205.04 6949.23 1205.04 6952.23 1204.04 6956.23 1204.04 6959.23 1204.04 6963.23 1203.04 6966.23 1203.04 6970.23 1203.04 6973.23 1202.04 6976.23 1202.04 6980.23 1201.04 6983.23 1201.04 6987.23 1201.04 6990.23 1200.04 6994.23 1200.04 6997.23 1200.04 7000.23 1199.04 7004.23 1199.04 7007.23 1199.04 7011.23 1198.04 7014.23 1198.04 7018.23 1198.04 7021.23 1197.04 7024.23 1197.04 7028.23 1196.04 7031.23 1196.04 7035.23 1196.04 7038.23 1195.04 7042.23 1195.04 7045.23 1195.04 7048.23 1194.04 7052.23 1194.04 7055.23 1194.04 7059.23 1193.04 7062.23 1193.04 7066.23 1193.04 7069.23 1192.04 7072.23 1192.04 7076.23 1192.04 7079.23 1191.04 7083.23 1191.04 7086.23 1191.04 7090.23 1190.04 7093.23 1190.04 7096.23 1190.04 7100.23 1190.04 7103.23 1189.04 7107.23 1189.04 7110.23 1189.04 7114.23 1188.04 7117.23 1188.04 7120.23 1188.04 7124.23 1187.04 7127.23 1187.04 7131.23 1187.04 7134.23 1186.04 7138.23 1186.04 7141.23 1186.04 7144.23 1185.04 7148.23 1185.04 7151.23 1185.04 7155.23 1185.04 7158.23 1184.04 7161.23 1184.04 7165.23 1184.04 7168.23 1183.04 7172.24 1183.04 7175.24 1183.04 7179.24 1183.04 7182.24 1182.04 7185.24 1182.04 7189.24 1182.04 7192.24 1181.04 7196.24 1181.04 7199.24 1181.04 7203.24 1181.04 7206.24 1180.04 7209.24 1180.04 7213.24 1180.04 7216.24 1179.04 7220.24 1179.04 7223.24 1179.04 7227.24 1179.04 7230.24 1178.04 7233.24 1178.04 7237.24 1178.04 7240.24 1177.04 7244.24 1177.04 7247.24 1177.04 7251.24 1177.04 7254.24 1176.04 7257.24 1176.04 7261.24 1176.04 7264.24 1176.04 7268.24 1175.04 7271.24 1175.04 7275.24 1175.04 7278.24 1174.04 7281.24 1174.04 7285.24 1174.04 7288.24 1174.04 7292.24 1173.04 7295.24 1173.04 7299.24 1173.04 7302.24 1173.04 7305.24 1172.04 7309.24 1172.04 7312.24 1172.04 7316.24 1172.04 7319.24 1171.04 7323.24 1171.04 7326.24 1171.04 7329.24 1171.04 7333.24 1170.04 7336.24 1170.04 7340.24 1170.04 7343.24 1170.04 7346.24 1169.04 7350.24 1169.04 7353.24 1169.04 7357.24 1169.04 7360.24 1168.04 7364.24 1168.04 7367.24 1168.04 7370.24 1168.04 7374.24 1167.04 7377.24 1167.04 7381.24 1167.04 7384.24 1167.04 7388.24 1166.04 7391.24 1166.04 7394.24 1166.04 7398.24 1166.04 7401.24 1166.04 7405.24 1165.04 7408.24 1165.04 7412.24 1165.04 7415.24 1165.04 7418.24 1164.04 7422.24 1164.04 7425.24 1164.04 7429.24 1164.04 7432.24 1163.04 7436.24 1163.04 7439.24 1163.04 7442.24 1163.04 7446.24 1163.04 7449.24 1162.04 7453.24 1162.04 7456.24 1162.04 7460.24 1162.04 7463.24 1161.04 7466.25 1161.04 7470.25 1161.04 7473.25 1161.04 7477.25 1160.04 7480.25 1160.04 7484.25 1160.04 7487.25 1160.04 7490.25 1160.04 7494.25 1159.04 7497.25 1159.04 7501.25 1159.04 7504.25 1159.04 7508.25 1159.04 7511.25 1158.04 7514.25 1158.04 7518.25 1158.04 7521.25 1158.04 7525.25 1157.04 7528.25 1157.04 7532.25 1157.04 7535.25 1157.04 7538.25 1157.04 7542.25 1156.04 7545.25 1156.04 7549.25 1156.04 7552.25 1156.04 7555.25 1156.04 7559.25 1155.04 7562.25 1155.04 7566.25 1155.04 7569.25 1155.04 7573.25 1154.04 7576.25 1154.04 7579.25 1154.04 7583.25 1154.04 7586.25 1154.04 7590.25 1153.04 7593.25 1153.04 7597.25 1153.04 7600.25 1153.04 7603.25 1153.04 7607.25 1152.04 7610.25 1152.04 7614.25 1152.04 7617.25 1152.04 7621.25 1152.04 7624.25 1151.04 7627.25 1151.04 7631.25 1151.04 7634.25 1151.04 7638.25 1151.04 7641.25 1150.04 7645.25 1150.04 7648.25 1150.04 7651.25 1150.04 7655.25 1150.04 7658.25 1150.04 7662.25 1149.04 7665.25 1149.04 7669.25 1149.04 7672.25 1149.04 7675.25 1149.04 7679.25 1148.04 7682.25 1148.04 7686.25 1148.04 7689.25 1148.04 7693.25 1148.04 7696.25 1147.04 7699.25 1147.04 7703.25 1147.04 7706.25 1147.04 7710.25 1147.04 7713.25 1146.04 7717.25 1146.04 7720.25 1146.04 7723.25 1146.04 7727.25 1146.04 7730.25 1146.04 7734.25 1145.04 7737.25 1145.04 7741.25 1145.04 7744.25 1145.04 7747.25 1145.04 7751.25 1144.04 7754.25 1144.04 7758.25 1144.04 7761.25 1144.04 7764.25 1144.04 7768.25 1144.04 7771.25 1143.04 7775.25 1143.04 7778.25 1143.04 7782.26 1143.04 7785.26 1143.04 7788.26 1142.04 7792.26 1142.04 7795.26 1142.04 7799.26 1142.04 7802.26 1142.04 7806.26 1142.04 7809.26 1141.04 7812.26 1141.04 7816.26 1141.04 7819.26 1141.04 7823.26 1141.04 7826.26 1141.04 7830.26 1140.04 7833.26 1140.04 7836.26 1140.04 7840.26 1140.04 7843.26 1140.04 7847.26 1139.04 7850.26 1139.04 7854.26 1139.04 7857.26 1139.04 7860.26 1139.04 7864.26 1139.04 7867.26 1138.04 7871.26 1138.04 7874.26 1138.04 7878.26 1138.04 7881.26 1138.04 7884.26 1138.04 7888.26 1137.04 7891.26 1137.04 7895.26 1137.04 7898.26 1137.04 7902.26 1137.04 7905.26 1137.04 7908.26 1136.04 7912.26 1136.04 7915.26 1136.04 7919.26 1136.04 7922.26 1136.04 7926.26 1136.04 7929.26 1135.04 7932.26 1135.04 7936.26 1135.04 7939.26 1135.04 7943.26 1135.04 7946.26 1135.04 7949.26 1135.04 7953.26 1134.04 7956.26 1134.04 7960.26 1134.04 7963.26 1134.04 7967.26 1134.04 7970.26 1134.04 7973.26 1133.04 7977.26 1133.04 7980.26 1133.04 7984.26 1133.04 7987.26 1133.04 7991.26 1133.04 7994.26 1132.04 7997.26 1132.04 8001.26 1132.04 8004.26 1132.04 8008.26 1132.04 8011.26 1132.04 8015.26 1132.04 8018.26 1131.04 8021.26 1131.04 8025.26 1131.04 8028.26 1131.04 8032.26 1131.04 8035.26 1131.04 8039.26 1130.04 8042.26 1130.04 8045.26 1130.04 8049.26 1130.04 8052.26 1130.04 8056.26 1130.04 8059.26 1130.04 8063.26 1129.04 8066.26 1129.04 8069.26 1129.04 8073.26 1129.04 8076.26 1129.04 8080.27 1129.04 8083.27 1128.04 8087.27 1128.04 8090.27 1128.04 8093.27 1128.04 8097.27 1128.04 8100.27 1128.04 8104.27 1128.04 8107.27 1127.04 8111.27 1127.04 8114.27 1127.04 8117.27 1127.04 8121.27 1127.04 8124.27 1127.04 8128.27 1127.04 8131.27 1126.04 8135.27 1126.04 8138.27 1126.04 8141.27 1126.04 8145.27 1126.04 8148.27 1126.04 8152.27 1126.04 8155.27 1125.04 8158.27 1125.04 8162.27 1125.04 8165.27 1125.04 8169.27 1125.04 8172.27 1125.04 8176.27 1125.04 8179.27 1124.04 8182.27 1124.04 8186.27 1124.04 8189.27 1124.04 8193.27 1124.04 8196.27 1124.04 8200.27 1124.04 8203.27 1123.04 8206.27 1123.04 8210.27 1123.04 8213.27 1123.04 8217.27 1123.04 8220.27 1123.04 8224.27 1123.04 8227.27 1122.04 8230.27 1122.04 8234.27 1122.04 8237.27 1122.04 8241.27 1122.04 8244.27 1122.04 8248.27 1122.04 8251.27 1121.04 8254.27 1121.04 8258.27 1121.04 8261.27 1121.04 8265.27 1121.04 8268.27 1121.04 8272.27 1121.04 8275.27 1121.04 8278.27 1120.04 8282.27 1120.04 8285.27 1120.04 8289.27 1120.04 8292.27 1120.04 8296.27 1120.04 8299.27 1120.04 8302.27 1119.04 8306.27 1119.04 8309.27 1119.04 8313.27 1119.04 8316.27 1119.04 8320.27 1119.04 8323.27 1119.04 8326.27 1118.04 8330.27 1118.04 8333.27 1118.04 8337.27 1118.04 8340.27 1118.04 8344.27 1118.04 8347.27 1118.04 8350.27 1118.04 8354.27 1117.04 8357.27 1117.04 8361.27 1117.04 8364.27 1117.04 8367.27 1117.04 8371.27 1117.04 8374.27 1117.04 8378.27 1117.04 8381.28 1116.04 8385.28 1116.04 8388.28 1116.04 8391.28 1116.04 8395.28 1116.04 8398.28 1116.04 8402.28 1116.04 8405.28 1116.04 8409.28 1115.04 8412.28 1115.04 8415.28 1115.04 8419.28 1115.04 8422.28 1115.04 8426.28 1115.04 8429.28 1115.04 8433.28 1115.04 8436.28 1114.04 8439.28 1114.04 8443.28 1114.04 8446.28 1114.04 8450.28 1114.04 8453.28 1114.04 8457.28 1114.04 8460.28 1114.04 8463.28 1113.04 8467.28 1113.04 8470.28 1113.04 8474.28 1113.04 8477.28 1113.04 8481.28 1113.04 8484.28 1113.04 8487.28 1113.04 8491.28 1112.04 8494.28 1112.04 8498.28 1112.04 8501.28 1112.04 8505.28 1112.04 8508.28 1112.04 8511.28 1112.04 8515.28 1112.04 8518.28 1111.04 8522.28 1111.04 8525.28 1111.04 8529.28 1111.04 8532.28 1111.04 8535.28 1111.04 8539.28 1111.04 8542.28 1111.04 8546.28 1110.04 8549.28 1110.04 8552.28 1110.04 8556.28 1110.04 8559.28 1110.04 8563.28 1110.04 8566.28 1110.04 8570.28 1110.04 8573.28 1110.04 8576.28 1109.04 8580.28 1109.04 8583.28 1109.04 8587.28 1109.04 8590.28 1109.04 8594.28 1109.04 8597.28 1109.04 8600.28 1109.04 8604.28 1108.04 8607.28 1108.04 8611.28 1108.04 8614.28 1108.04 8618.28 1108.04 8621.28 1108.04 8624.28 1108.04 8628.28 1108.04 8631.28 1108.04 8635.28 1107.04 8638.28 1107.04 8642.28 1107.04 8645.28 1107.04 8648.28 1107.04 8652.28 1107.04 8655.28 1107.04 8659.28 1107.04 8662.28 1106.04 8666.28 1106.04 8669.28 1106.04 8672.28 1106.04 8676.28 1106.04 8679.29 1106.04 8683.29 1106.04 8686.29 1106.04 8690.29 1106.04 8693.29 1105.04 8696.29 1105.04 8700.29 1105.04 8703.29 1105.04 8707.29 1105.04 8710.29 1105.04 8714.29 1105.04 8717.29 1105.04 8720.29 1105.04 8724.29 1104.04 8727.29 1104.04 8731.29 1104.04 8734.29 1104.04 8738.29 1104.04 8741.29 1104.04 8744.29 1104.04 8748.29 1104.04 8751.29 1104.04 8755.29 1103.04 8758.29 1103.04 8761.29 1103.04 8765.29 1103.04 8768.29 1103.04 8772.29 1103.04 8775.29 1103.04 8779.29 1103.04 8782.29 1103.04 8785.29 1102.04 8789.29 1102.04 8792.29 1102.04 8796.29 1102.04 8799.29 1102.04 8803.29 1102.04 8806.29 1102.04 8809.29 1102.04 8813.29 1102.04 8816.29 1102.04 8820.29 1101.04 8823.29 1101.04 8827.29 1101.04 8830.29 1101.04 8833.29 1101.04 8837.29 1101.04 8840.29 1101.04 8844.29 1101.04 8847.29 1101.04 8851.29 1100.04 8854.29 1100.04 8857.29 1100.04 8861.29 1100.04 8864.29 1100.04 8868.29 1100.04 8871.29 1100.04 8875.29 1100.04 8878.29 1100.04 8881.29 1100.04 8885.29 1099.04 8888.29 1099.04 8892.29 1099.04 8895.29 1099.04 8899.29 1099.04 8902.29 1099.04 8905.29 1099.04 8909.29 1099.04 8912.29 1099.04 8916.29 1098.04 8919.29 1098.04 8923.29 1098.04 8926.29 1098.04 8929.29 1098.04 8933.29 1098.04 8936.29 1098.04 8940.29 1098.04 8943.29 1098.04 8947.29 1098.04 8950.29 1097.04 8953.29 1097.04 8957.29 1097.04 8960.29 1097.04 8964.29 1097.04 8967.29 1097.04 8970.29 1097.04 8974.29 1097.04 8977.29 1097.04 8981.29 1097.04 8984.29 1096.04 8988.29 1096.04 8991.29 1096.04 8994.29 1096.04 8998.29 1096.04 9001.29 1096.04 9005.29 1096.04 9008.29 1096.04 9012.3 1096.04 9015.3 1096.04 9018.3 1095.04 9022.3 1095.04 9025.3 1095.04 9029.3 1095.04 9032.3 1095.04 9036.3 1095.04 9039.3 1095.04 9042.3 1095.04 9046.3 1095.04 9049.3 1095.04 9053.3 1094.04 9056.3 1094.04 9060.3 1094.04 9063.3 1094.04 9066.3 1094.04 9070.3 1094.04 9073.3 1094.04 9077.3 1094.04 9080.3 1094.04 9084.3 1094.04 9087.3 1093.04 9090.3 1093.04 9094.3 1093.04 9097.3 1093.04 9101.3 1093.04 9104.3 1093.04 9108.3 1093.04 9111.3 1093.04 9114.3 1093.04 9118.3 1093.04 9121.3 1093.04 9125.3 1092.04 9128.3 1092.04 9132.3 1092.04 9135.3 1092.04 9138.3 1092.04 9142.3 1092.04 9145.3 1092.04 9149.3 1092.04 9152.3 1092.04 9155.3 1092.04 9159.3 1091.04 9162.3 1091.04 9166.3 1091.04 9169.3 1091.04 9173.3 1091.04 9176.3 1091.04 9179.3 1091.04 9183.3 1091.04 9186.3 1091.04 9190.3 1091.04 9193.3 1091.04 9197.3 1090.04 9200.3 1090.04 9203.3 1090.04 9207.3 1090.04 9210.3 1090.04 9214.3 1090.04 9217.3 1090.04 9221.3 1090.04 9224.3 1090.04 9227.3 1090.04 9231.3 1089.04 9234.3 1089.04 9238.3 1089.04 9241.3 1089.04 9245.3 1089.04 9248.3 1089.04 9251.3 1089.04 9255.3 1089.04 9258.3 1089.04 9262.3 1089.04 9265.3 1089.04 9269.3 1088.04 9272.3 1088.04 9275.3 1088.04 9279.3 1088.04 9282.3 1088.04 9286.3 1088.04 9289.3 1088.04 9293.3 1088.04 9296.3 1088.04 9299.3 1088.04 9303.3 1088.04 9306.3 1087.04 9310.31 1087.04 9313.31 1087.04 9317.31 1087.04 9320.31 1087.04 9323.31 1087.04 9327.31 1087.04 9330.31 1087.04 9334.31 1087.04 9337.31 1087.04 9341.31 1087.04 9344.31 1086.04 9347.31 1086.04 9351.31 1086.04 9354.31 1086.04 9358.31 1086.04 9361.31 1086.04 9364.31 1086.04 9368.31 1086.04 9371.31 1086.04 9375.31 1086.04 9378.31 1086.04 9382.31 1086.04 9385.31 1085.04 9388.31 1085.04 9392.31 1085.04 9395.31 1085.04 9399.31 1085.04 9402.31 1085.04 9406.31 1085.04 9409.31 1085.04 9412.31 1085.04 9416.31 1085.04 9419.31 1085.04 9423.31 1084.04 9426.31 1084.04 9430.31 1084.04 9433.31 1084.04 9436.31 1084.04 9440.31 1084.04 9443.31 1084.04 9447.31 1084.04 9450.31 1084.04 9454.31 1084.04 9457.31 1084.04 9460.31 1084.04 9464.31 1083.04 9467.31 1083.04 9471.31 1083.04 9474.31 1083.04 9478.31 1083.04 9481.31 1083.04 9484.31 1083.04 9488.31 1083.04 9491.31 1083.04 9495.31 1083.04 9498.31 1083.04 9502.31 1083.04 9505.31 1082.04 9508.31 1082.04 9512.31 1082.04 9515.31 1082.04 9519.31 1082.04 9522.31 1082.04 9526.31 1082.04 9529.31 1082.04 9532.31 1082.04 9536.31 1082.04 9539.31 1082.04 9543.31 1081.04 9546.31 1081.04 9549.31 1081.04 9553.31 1081.04 9556.31 1081.04 9560.31 1081.04 9563.31 1081.04 9567.31 1081.04 9570.31 1081.04 9573.31 1081.04 9577.31 1081.04 9580.31 1081.04 9584.31 1080.04 9587.31 1080.04 9591.31 1080.04 9594.31 1080.04 9597.31 1080.04 9601.31 1080.04 9604.31 1080.04 9608.32 1080.04 9611.32 1080.04 9615.32 1080.04 9618.32 1080.04 9621.32 1080.04 9625.32 1080.04 9628.32 1079.04 9632.32 1079.04 9635.32 1079.04 9639.32 1079.04 9642.32 1079.04 9645.32 1079.04 9649.32 1079.04 9652.32 1079.04 9656.32 1079.04 9659.32 1079.04 9663.32 1079.04 9666.32 1079.04 9669.32 1078.04 9673.32 1078.04 9676.32 1078.04 9680.32 1078.04 9683.32 1078.04 9687.32 1078.04 9690.32 1078.04 9693.32 1078.04 9697.32 1078.04 9700.32 1078.04 9704.32 1078.04 9707.32 1078.04 9711.32 1077.04 9714.32 1077.04 9717.32 1077.04 9721.32 1077.04 9724.32 1077.04 9728.32 1077.04 9731.32 1077.04 9735.32 1077.04 9738.32 1077.04 9741.32 1077.04 9745.32 1077.04 9748.32 1077.04 9752.32 1077.04 9755.32 1076.04 9758.32 1076.04 9762.32 1076.04 9766 1076" stroke="#548235" stroke-width="13.75" stroke-linecap="round" stroke-linejoin="round" stroke-miterlimit="10" fill="none"/></g><g clip-path="url(#clip4)"><path d="M0 0 3526 1443" stroke="#C55A11" stroke-width="13.75" stroke-linecap="round" stroke-linejoin="round" stroke-miterlimit="10" fill="none" fill-rule="evenodd" transform="matrix(1 0 0 -1 6240 1605)"/></g><g clip-path="url(#clip5)"><text fill="#595959" font-family="Calibri,Calibri_MSFontService,sans-serif" font-weight="400" font-size="41" transform="matrix(1 0 0 1 6039.13 1715)">0.00E+00</text></g><g clip-path="url(#clip6)"><text fill="#595959" font-family="Calibri,Calibri_MSFontService,sans-serif" font-weight="400" font-size="41" transform="matrix(1 0 0 1 6047.04 1399)">2.00E-06</text></g><g clip-path="url(#clip7)"><text fill="#595959" font-family="Calibri,Calibri_MSFontService,sans-serif" font-weight="400" font-size="41" transform="matrix(1 0 0 1 6047.04 1083)">4.00E-06</text></g><g clip-path="url(#clip8)"><text fill="#595959" font-family="Calibri,Calibri_MSFontService,sans-serif" font-weight="400" font-size="41" transform="matrix(1 0 0 1 6047.04 767)">6.00E-06</text></g><g clip-path="url(#clip9)"><text fill="#595959" font-family="Calibri,Calibri_MSFontService,sans-serif" font-weight="400" font-size="41" transform="matrix(1 0 0 1 6047.04 451)">8.00E-06</text></g><g clip-path="url(#clip10)"><text fill="#595959" font-family="Calibri,Calibri_MSFontService,sans-serif" font-weight="400" font-size="41" transform="matrix(1 0 0 1 6047.04 135)">1.00E-05</text></g><g clip-path="url(#clip11)"><text fill="#595959" font-family="Calibri,Calibri_MSFontService,sans-serif" font-weight="400" font-size="41" transform="matrix(6.12323e-17 -1 1 6.12323e-17 6253.89 1750)">1</text></g><g clip-path="url(#clip12)"><text fill="#595959" font-family="Calibri,Calibri_MSFontService,sans-serif" font-weight="400" font-size="41" transform="matrix(6.12323e-17 -1 1 6.12323e-17 6310.52 1750)">5</text></g><g clip-path="url(#clip13)"><text fill="#595959" font-family="Calibri,Calibri_MSFontService,sans-serif" font-weight="400" font-size="41" transform="matrix(6.12323e-17 -1 1 6.12323e-17 6367.16 1750)">9</text></g><g clip-path="url(#clip14)"><text fill="#595959" font-family="Calibri,Calibri_MSFontService,sans-serif" font-weight="400" font-size="41" transform="matrix(6.12323e-17 -1 1 6.12323e-17 6423.8 1771)">13</text></g><g clip-path="url(#clip15)"><text fill="#595959" font-family="Calibri,Calibri_MSFontService,sans-serif" font-weight="400" font-size="41" transform="matrix(6.12323e-17 -1 1 6.12323e-17 6480.43 1771)">17</text></g><g clip-path="url(#clip16)"><text fill="#595959" font-family="Calibri,Calibri_MSFontService,sans-serif" font-weight="400" font-size="41" transform="matrix(6.12323e-17 -1 1 6.12323e-17 6537.07 1771)">21</text></g><g clip-path="url(#clip17)"><text fill="#595959" font-family="Calibri,Calibri_MSFontService,sans-serif" font-weight="400" font-size="41" transform="matrix(6.12323e-17 -1 1 6.12323e-17 6593.71 1771)">25</text></g><g clip-path="url(#clip18)"><text fill="#595959" font-family="Calibri,Calibri_MSFontService,sans-serif" font-weight="400" font-size="41" transform="matrix(6.12323e-17 -1 1 6.12323e-17 6650.34 1771)">29</text></g><g clip-path="url(#clip19)"><text fill="#595959" font-family="Calibri,Calibri_MSFontService,sans-serif" font-weight="400" font-size="41" transform="matrix(6.12323e-17 -1 1 6.12323e-17 6706.98 1771)">33</text></g><g clip-path="url(#clip20)"><text fill="#595959" font-family="Calibri,Calibri_MSFontService,sans-serif" font-weight="400" font-size="41" transform="matrix(6.12323e-17 -1 1 6.12323e-17 6763.61 1771)">37</text></g><g clip-path="url(#clip21)"><text fill="#595959" font-family="Calibri,Calibri_MSFontService,sans-serif" font-weight="400" font-size="41" transform="matrix(6.12323e-17 -1 1 6.12323e-17 6820.25 1771)">41</text></g><g clip-path="url(#clip22)"><text fill="#595959" font-family="Calibri,Calibri_MSFontService,sans-serif" font-weight="400" font-size="41" transform="matrix(6.12323e-17 -1 1 6.12323e-17 6876.89 1771)">45</text></g><g clip-path="url(#clip23)"><text fill="#595959" font-family="Calibri,Calibri_MSFontService,sans-serif" font-weight="400" font-size="41" transform="matrix(6.12323e-17 -1 1 6.12323e-17 6933.52 1771)">49</text></g><g clip-path="url(#clip24)"><text fill="#595959" font-family="Calibri,Calibri_MSFontService,sans-serif" font-weight="400" font-size="41" transform="matrix(6.12323e-17 -1 1 6.12323e-17 6990.16 1771)">53</text></g><g clip-path="url(#clip25)"><text fill="#595959" font-family="Calibri,Calibri_MSFontService,sans-serif" font-weight="400" font-size="41" transform="matrix(6.12323e-17 -1 1 6.12323e-17 7046.8 1771)">57</text></g><g clip-path="url(#clip26)"><text fill="#595959" font-family="Calibri,Calibri_MSFontService,sans-serif" font-weight="400" font-size="41" transform="matrix(6.12323e-17 -1 1 6.12323e-17 7103.43 1771)">61</text></g><g clip-path="url(#clip27)"><text fill="#595959" font-family="Calibri,Calibri_MSFontService,sans-serif" font-weight="400" font-size="41" transform="matrix(6.12323e-17 -1 1 6.12323e-17 7160.07 1771)">65</text></g><g clip-path="url(#clip28)"><text fill="#595959" font-family="Calibri,Calibri_MSFontService,sans-serif" font-weight="400" font-size="41" transform="matrix(6.12323e-17 -1 1 6.12323e-17 7216.7 1771)">69</text></g><g clip-path="url(#clip29)"><text fill="#595959" font-family="Calibri,Calibri_MSFontService,sans-serif" font-weight="400" font-size="41" transform="matrix(6.12323e-17 -1 1 6.12323e-17 7273.34 1771)">73</text></g><g clip-path="url(#clip30)"><text fill="#595959" font-family="Calibri,Calibri_MSFontService,sans-serif" font-weight="400" font-size="41" transform="matrix(6.12323e-17 -1 1 6.12323e-17 7329.98 1771)">77</text></g><g clip-path="url(#clip31)"><text fill="#595959" font-family="Calibri,Calibri_MSFontService,sans-serif" font-weight="400" font-size="41" transform="matrix(6.12323e-17 -1 1 6.12323e-17 7386.61 1771)">81</text></g><g clip-path="url(#clip32)"><text fill="#595959" font-family="Calibri,Calibri_MSFontService,sans-serif" font-weight="400" font-size="41" transform="matrix(6.12323e-17 -1 1 6.12323e-17 7443.25 1771)">85</text></g><g clip-path="url(#clip33)"><text fill="#595959" font-family="Calibri,Calibri_MSFontService,sans-serif" font-weight="400" font-size="41" transform="matrix(6.12323e-17 -1 1 6.12323e-17 7499.88 1771)">89</text></g><g clip-path="url(#clip34)"><text fill="#595959" font-family="Calibri,Calibri_MSFontService,sans-serif" font-weight="400" font-size="41" transform="matrix(6.12323e-17 -1 1 6.12323e-17 7556.52 1771)">93</text></g><g clip-path="url(#clip35)"><text fill="#595959" font-family="Calibri,Calibri_MSFontService,sans-serif" font-weight="400" font-size="41" transform="matrix(6.12323e-17 -1 1 6.12323e-17 7613.16 1771)">97</text></g><g clip-path="url(#clip36)"><text fill="#595959" font-family="Calibri,Calibri_MSFontService,sans-serif" font-weight="400" font-size="41" transform="matrix(6.12323e-17 -1 1 6.12323e-17 7669.79 1792)">101</text></g><g clip-path="url(#clip37)"><text fill="#595959" font-family="Calibri,Calibri_MSFontService,sans-serif" font-weight="400" font-size="41" transform="matrix(6.12323e-17 -1 1 6.12323e-17 7726.43 1792)">105</text></g><g clip-path="url(#clip38)"><text fill="#595959" font-family="Calibri,Calibri_MSFontService,sans-serif" font-weight="400" font-size="41" transform="matrix(6.12323e-17 -1 1 6.12323e-17 7783.07 1792)">109</text></g><g clip-path="url(#clip39)"><text fill="#595959" font-family="Calibri,Calibri_MSFontService,sans-serif" font-weight="400" font-size="41" transform="matrix(6.12323e-17 -1 1 6.12323e-17 7839.7 1792)">113</text></g><g clip-path="url(#clip40)"><text fill="#595959" font-family="Calibri,Calibri_MSFontService,sans-serif" font-weight="400" font-size="41" transform="matrix(6.12323e-17 -1 1 6.12323e-17 7896.34 1792)">117</text></g><g clip-path="url(#clip41)"><text fill="#595959" font-family="Calibri,Calibri_MSFontService,sans-serif" font-weight="400" font-size="41" transform="matrix(6.12323e-17 -1 1 6.12323e-17 7952.97 1792)">121</text></g><g clip-path="url(#clip42)"><text fill="#595959" font-family="Calibri,Calibri_MSFontService,sans-serif" font-weight="400" font-size="41" transform="matrix(6.12323e-17 -1 1 6.12323e-17 8009.61 1792)">125</text></g><g clip-path="url(#clip43)"><text fill="#595959" font-family="Calibri,Calibri_MSFontService,sans-serif" font-weight="400" font-size="41" transform="matrix(6.12323e-17 -1 1 6.12323e-17 8066.25 1792)">129</text></g><g clip-path="url(#clip44)"><text fill="#595959" font-family="Calibri,Calibri_MSFontService,sans-serif" font-weight="400" font-size="41" transform="matrix(6.12323e-17 -1 1 6.12323e-17 8122.88 1792)">133</text></g><g clip-path="url(#clip45)"><text fill="#595959" font-family="Calibri,Calibri_MSFontService,sans-serif" font-weight="400" font-size="41" transform="matrix(6.12323e-17 -1 1 6.12323e-17 8179.52 1792)">137</text></g><g clip-path="url(#clip46)"><text fill="#595959" font-family="Calibri,Calibri_MSFontService,sans-serif" font-weight="400" font-size="41" transform="matrix(6.12323e-17 -1 1 6.12323e-17 8236.16 1792)">141</text></g><g clip-path="url(#clip47)"><text fill="#595959" font-family="Calibri,Calibri_MSFontService,sans-serif" font-weight="400" font-size="41" transform="matrix(6.12323e-17 -1 1 6.12323e-17 8292.79 1792)">145</text></g><g clip-path="url(#clip48)"><text fill="#595959" font-family="Calibri,Calibri_MSFontService,sans-serif" font-weight="400" font-size="41" transform="matrix(6.12323e-17 -1 1 6.12323e-17 8349.43 1792)">149</text></g><g clip-path="url(#clip49)"><text fill="#595959" font-family="Calibri,Calibri_MSFontService,sans-serif" font-weight="400" font-size="41" transform="matrix(6.12323e-17 -1 1 6.12323e-17 8406.06 1792)">153</text></g><g clip-path="url(#clip50)"><text fill="#595959" font-family="Calibri,Calibri_MSFontService,sans-serif" font-weight="400" font-size="41" transform="matrix(6.12323e-17 -1 1 6.12323e-17 8462.7 1792)">157</text></g><g clip-path="url(#clip51)"><text fill="#595959" font-family="Calibri,Calibri_MSFontService,sans-serif" font-weight="400" font-size="41" transform="matrix(6.12323e-17 -1 1 6.12323e-17 8519.34 1792)">161</text></g><g clip-path="url(#clip52)"><text fill="#595959" font-family="Calibri,Calibri_MSFontService,sans-serif" font-weight="400" font-size="41" transform="matrix(6.12323e-17 -1 1 6.12323e-17 8575.97 1792)">165</text></g><g clip-path="url(#clip53)"><text fill="#595959" font-family="Calibri,Calibri_MSFontService,sans-serif" font-weight="400" font-size="41" transform="matrix(6.12323e-17 -1 1 6.12323e-17 8632.61 1792)">169</text></g><g clip-path="url(#clip54)"><text fill="#595959" font-family="Calibri,Calibri_MSFontService,sans-serif" font-weight="400" font-size="41" transform="matrix(6.12323e-17 -1 1 6.12323e-17 8689.24 1792)">173</text></g><g clip-path="url(#clip55)"><text fill="#595959" font-family="Calibri,Calibri_MSFontService,sans-serif" font-weight="400" font-size="41" transform="matrix(6.12323e-17 -1 1 6.12323e-17 8745.88 1792)">177</text></g><g clip-path="url(#clip56)"><text fill="#595959" font-family="Calibri,Calibri_MSFontService,sans-serif" font-weight="400" font-size="41" transform="matrix(6.12323e-17 -1 1 6.12323e-17 8802.52 1792)">181</text></g><g clip-path="url(#clip57)"><text fill="#595959" font-family="Calibri,Calibri_MSFontService,sans-serif" font-weight="400" font-size="41" transform="matrix(6.12323e-17 -1 1 6.12323e-17 8859.15 1792)">185</text></g><g clip-path="url(#clip58)"><text fill="#595959" font-family="Calibri,Calibri_MSFontService,sans-serif" font-weight="400" font-size="41" transform="matrix(6.12323e-17 -1 1 6.12323e-17 8915.79 1792)">189</text></g><g clip-path="url(#clip59)"><text fill="#595959" font-family="Calibri,Calibri_MSFontService,sans-serif" font-weight="400" font-size="41" transform="matrix(6.12323e-17 -1 1 6.12323e-17 8972.43 1792)">193</text></g><g clip-path="url(#clip60)"><text fill="#595959" font-family="Calibri,Calibri_MSFontService,sans-serif" font-weight="400" font-size="41" transform="matrix(6.12323e-17 -1 1 6.12323e-17 9029.06 1792)">197</text></g><g clip-path="url(#clip61)"><text fill="#595959" font-family="Calibri,Calibri_MSFontService,sans-serif" font-weight="400" font-size="41" transform="matrix(6.12323e-17 -1 1 6.12323e-17 9085.7 1792)">201</text></g><g clip-path="url(#clip62)"><text fill="#595959" font-family="Calibri,Calibri_MSFontService,sans-serif" font-weight="400" font-size="41" transform="matrix(6.12323e-17 -1 1 6.12323e-17 9142.33 1792)">205</text></g><g clip-path="url(#clip63)"><text fill="#595959" font-family="Calibri,Calibri_MSFontService,sans-serif" font-weight="400" font-size="41" transform="matrix(6.12323e-17 -1 1 6.12323e-17 9198.97 1792)">209</text></g><g clip-path="url(#clip64)"><text fill="#595959" font-family="Calibri,Calibri_MSFontService,sans-serif" font-weight="400" font-size="41" transform="matrix(6.12323e-17 -1 1 6.12323e-17 9255.61 1792)">213</text></g><g clip-path="url(#clip65)"><text fill="#595959" font-family="Calibri,Calibri_MSFontService,sans-serif" font-weight="400" font-size="41" transform="matrix(6.12323e-17 -1 1 6.12323e-17 9312.24 1792)">217</text></g><g clip-path="url(#clip66)"><text fill="#595959" font-family="Calibri,Calibri_MSFontService,sans-serif" font-weight="400" font-size="41" transform="matrix(6.12323e-17 -1 1 6.12323e-17 9368.88 1792)">221</text></g><g clip-path="url(#clip67)"><text fill="#595959" font-family="Calibri,Calibri_MSFontService,sans-serif" font-weight="400" font-size="41" transform="matrix(6.12323e-17 -1 1 6.12323e-17 9425.51 1792)">225</text></g><g clip-path="url(#clip68)"><text fill="#595959" font-family="Calibri,Calibri_MSFontService,sans-serif" font-weight="400" font-size="41" transform="matrix(6.12323e-17 -1 1 6.12323e-17 9482.15 1792)">229</text></g><g clip-path="url(#clip69)"><text fill="#595959" font-family="Calibri,Calibri_MSFontService,sans-serif" font-weight="400" font-size="41" transform="matrix(6.12323e-17 -1 1 6.12323e-17 9538.79 1792)">233</text></g><g clip-path="url(#clip70)"><text fill="#595959" font-family="Calibri,Calibri_MSFontService,sans-serif" font-weight="400" font-size="41" transform="matrix(6.12323e-17 -1 1 6.12323e-17 9595.42 1792)">237</text></g><g clip-path="url(#clip71)"><text fill="#595959" font-family="Calibri,Calibri_MSFontService,sans-serif" font-weight="400" font-size="41" transform="matrix(6.12323e-17 -1 1 6.12323e-17 9652.06 1792)">241</text></g><g clip-path="url(#clip72)"><text fill="#595959" font-family="Calibri,Calibri_MSFontService,sans-serif" font-weight="400" font-size="41" transform="matrix(6.12323e-17 -1 1 6.12323e-17 9708.7 1792)">245</text></g><g clip-path="url(#clip73)"><text fill="#595959" font-family="Calibri,Calibri_MSFontService,sans-serif" font-weight="400" font-size="41" transform="matrix(6.12323e-17 -1 1 6.12323e-17 9765.33 1792)">249</text></g><g clip-path="url(#clip74)"><text fill="#595959" font-family="Times New Roman,Times New Roman_MSFontService,sans-serif" font-weight="400" font-size="64" transform="matrix(6.12323e-17 -1 1 6.12323e-17 6011.59 1332)">Laufzeit in Sekundenbruchteilen</text></g><g clip-path="url(#clip75)"><text fill="#595959" font-family="Times New Roman,Times New Roman_MSFontService,sans-serif" font-weight="400" font-size="64" transform="matrix(1 0 0 1 7707.99 1866)">Anzahl der Elemente n</text></g><rect x="5894.5" y="73.5001" width="3929" height="1864" stroke="#D9D9D9" stroke-width="3.4375" stroke-linejoin="round" stroke-miterlimit="10" fill="none"/></g></svg>